<mxfile host="app.diagrams.net" agent="Mozilla/5.0 (Windows NT 10.0; Win64; x64) AppleWebKit/537.36 (KHTML, like Gecko) Chrome/127.0.0.0 Safari/537.36" version="24.8.4">
  <diagram name="Page-1" id="Ws2m-59HmovqPQIBEcHp">
    <mxGraphModel dx="1235" dy="614" grid="1" gridSize="10" guides="1" tooltips="1" connect="1" arrows="1" fold="1" page="1" pageScale="1" pageWidth="850" pageHeight="1100" math="0" shadow="0">
      <root>
        <mxCell id="0" />
        <mxCell id="1" parent="0" />
        <mxCell id="dTmDIWdOK7IqA_NaVf2s-2" value="" style="rounded=1;whiteSpace=wrap;html=1;" vertex="1" parent="1">
          <mxGeometry x="20" y="20" width="820" height="640" as="geometry" />
        </mxCell>
        <mxCell id="dTmDIWdOK7IqA_NaVf2s-5" value="" style="rounded=1;whiteSpace=wrap;html=1;" vertex="1" parent="1">
          <mxGeometry x="260" y="30" width="390" height="620" as="geometry" />
        </mxCell>
        <mxCell id="dTmDIWdOK7IqA_NaVf2s-8" style="rounded=0;orthogonalLoop=1;jettySize=auto;html=1;exitX=0.5;exitY=0.5;exitDx=0;exitDy=0;exitPerimeter=0;entryX=0;entryY=0.5;entryDx=0;entryDy=0;" edge="1" parent="1" source="dTmDIWdOK7IqA_NaVf2s-1" target="dTmDIWdOK7IqA_NaVf2s-6">
          <mxGeometry relative="1" as="geometry" />
        </mxCell>
        <mxCell id="dTmDIWdOK7IqA_NaVf2s-9" style="rounded=0;orthogonalLoop=1;jettySize=auto;html=1;exitX=0.5;exitY=0.5;exitDx=0;exitDy=0;exitPerimeter=0;entryX=0;entryY=0.5;entryDx=0;entryDy=0;edgeStyle=orthogonalEdgeStyle;" edge="1" parent="1" source="dTmDIWdOK7IqA_NaVf2s-1" target="dTmDIWdOK7IqA_NaVf2s-7">
          <mxGeometry relative="1" as="geometry" />
        </mxCell>
        <mxCell id="dTmDIWdOK7IqA_NaVf2s-23" style="rounded=0;orthogonalLoop=1;jettySize=auto;html=1;exitX=0.5;exitY=0.5;exitDx=0;exitDy=0;exitPerimeter=0;entryX=0;entryY=0.5;entryDx=0;entryDy=0;" edge="1" parent="1" source="dTmDIWdOK7IqA_NaVf2s-1" target="dTmDIWdOK7IqA_NaVf2s-12">
          <mxGeometry relative="1" as="geometry" />
        </mxCell>
        <mxCell id="dTmDIWdOK7IqA_NaVf2s-24" style="rounded=0;orthogonalLoop=1;jettySize=auto;html=1;exitX=0.5;exitY=0.5;exitDx=0;exitDy=0;exitPerimeter=0;entryX=0;entryY=0.5;entryDx=0;entryDy=0;" edge="1" parent="1" source="dTmDIWdOK7IqA_NaVf2s-1" target="dTmDIWdOK7IqA_NaVf2s-13">
          <mxGeometry relative="1" as="geometry" />
        </mxCell>
        <mxCell id="dTmDIWdOK7IqA_NaVf2s-25" style="rounded=0;orthogonalLoop=1;jettySize=auto;html=1;exitX=0.5;exitY=0.5;exitDx=0;exitDy=0;exitPerimeter=0;entryX=0;entryY=0.5;entryDx=0;entryDy=0;" edge="1" parent="1" source="dTmDIWdOK7IqA_NaVf2s-1" target="dTmDIWdOK7IqA_NaVf2s-14">
          <mxGeometry relative="1" as="geometry" />
        </mxCell>
        <mxCell id="dTmDIWdOK7IqA_NaVf2s-26" style="rounded=0;orthogonalLoop=1;jettySize=auto;html=1;exitX=0.5;exitY=0.5;exitDx=0;exitDy=0;exitPerimeter=0;entryX=0;entryY=0.5;entryDx=0;entryDy=0;" edge="1" parent="1" source="dTmDIWdOK7IqA_NaVf2s-1" target="dTmDIWdOK7IqA_NaVf2s-15">
          <mxGeometry relative="1" as="geometry" />
        </mxCell>
        <mxCell id="dTmDIWdOK7IqA_NaVf2s-27" style="rounded=0;orthogonalLoop=1;jettySize=auto;html=1;exitX=0.5;exitY=0.5;exitDx=0;exitDy=0;exitPerimeter=0;entryX=0;entryY=0.5;entryDx=0;entryDy=0;" edge="1" parent="1" source="dTmDIWdOK7IqA_NaVf2s-1" target="dTmDIWdOK7IqA_NaVf2s-21">
          <mxGeometry relative="1" as="geometry" />
        </mxCell>
        <mxCell id="dTmDIWdOK7IqA_NaVf2s-28" style="rounded=0;orthogonalLoop=1;jettySize=auto;html=1;exitX=0.5;exitY=0.5;exitDx=0;exitDy=0;exitPerimeter=0;entryX=0;entryY=0.5;entryDx=0;entryDy=0;" edge="1" parent="1" source="dTmDIWdOK7IqA_NaVf2s-1" target="dTmDIWdOK7IqA_NaVf2s-16">
          <mxGeometry relative="1" as="geometry" />
        </mxCell>
        <mxCell id="dTmDIWdOK7IqA_NaVf2s-1" value="User" style="shape=umlActor;verticalLabelPosition=bottom;verticalAlign=top;html=1;outlineConnect=0;" vertex="1" parent="1">
          <mxGeometry x="90" y="240" width="30" height="60" as="geometry" />
        </mxCell>
        <mxCell id="dTmDIWdOK7IqA_NaVf2s-10" style="rounded=0;orthogonalLoop=1;jettySize=auto;html=1;exitX=0.5;exitY=0.5;exitDx=0;exitDy=0;exitPerimeter=0;entryX=1;entryY=0.5;entryDx=0;entryDy=0;" edge="1" parent="1" source="dTmDIWdOK7IqA_NaVf2s-3" target="dTmDIWdOK7IqA_NaVf2s-6">
          <mxGeometry relative="1" as="geometry" />
        </mxCell>
        <mxCell id="dTmDIWdOK7IqA_NaVf2s-11" style="rounded=0;orthogonalLoop=1;jettySize=auto;html=1;exitX=0.5;exitY=0.5;exitDx=0;exitDy=0;exitPerimeter=0;entryX=1;entryY=0.5;entryDx=0;entryDy=0;" edge="1" parent="1" source="dTmDIWdOK7IqA_NaVf2s-3" target="dTmDIWdOK7IqA_NaVf2s-7">
          <mxGeometry relative="1" as="geometry" />
        </mxCell>
        <mxCell id="dTmDIWdOK7IqA_NaVf2s-29" style="rounded=0;orthogonalLoop=1;jettySize=auto;html=1;exitX=0.5;exitY=0.5;exitDx=0;exitDy=0;exitPerimeter=0;entryX=1;entryY=0.5;entryDx=0;entryDy=0;" edge="1" parent="1" source="dTmDIWdOK7IqA_NaVf2s-3" target="dTmDIWdOK7IqA_NaVf2s-12">
          <mxGeometry relative="1" as="geometry" />
        </mxCell>
        <mxCell id="dTmDIWdOK7IqA_NaVf2s-30" style="rounded=0;orthogonalLoop=1;jettySize=auto;html=1;exitX=0.5;exitY=0.5;exitDx=0;exitDy=0;exitPerimeter=0;entryX=1;entryY=0.5;entryDx=0;entryDy=0;" edge="1" parent="1" source="dTmDIWdOK7IqA_NaVf2s-3" target="dTmDIWdOK7IqA_NaVf2s-13">
          <mxGeometry relative="1" as="geometry" />
        </mxCell>
        <mxCell id="dTmDIWdOK7IqA_NaVf2s-31" style="rounded=0;orthogonalLoop=1;jettySize=auto;html=1;exitX=0.5;exitY=0.5;exitDx=0;exitDy=0;exitPerimeter=0;entryX=1;entryY=0.5;entryDx=0;entryDy=0;" edge="1" parent="1" source="dTmDIWdOK7IqA_NaVf2s-3" target="dTmDIWdOK7IqA_NaVf2s-20">
          <mxGeometry relative="1" as="geometry" />
        </mxCell>
        <mxCell id="dTmDIWdOK7IqA_NaVf2s-32" style="rounded=0;orthogonalLoop=1;jettySize=auto;html=1;exitX=0.5;exitY=0.5;exitDx=0;exitDy=0;exitPerimeter=0;entryX=1;entryY=0.5;entryDx=0;entryDy=0;" edge="1" parent="1" source="dTmDIWdOK7IqA_NaVf2s-3" target="dTmDIWdOK7IqA_NaVf2s-22">
          <mxGeometry relative="1" as="geometry" />
        </mxCell>
        <mxCell id="dTmDIWdOK7IqA_NaVf2s-3" value="Admin" style="shape=umlActor;verticalLabelPosition=bottom;verticalAlign=top;html=1;outlineConnect=0;" vertex="1" parent="1">
          <mxGeometry x="710" y="230" width="30" height="60" as="geometry" />
        </mxCell>
        <mxCell id="dTmDIWdOK7IqA_NaVf2s-6" value="Login" style="ellipse;whiteSpace=wrap;html=1;" vertex="1" parent="1">
          <mxGeometry x="385" y="40" width="120" height="60" as="geometry" />
        </mxCell>
        <mxCell id="dTmDIWdOK7IqA_NaVf2s-7" value="Register" style="ellipse;whiteSpace=wrap;html=1;" vertex="1" parent="1">
          <mxGeometry x="385" y="580" width="120" height="60" as="geometry" />
        </mxCell>
        <mxCell id="dTmDIWdOK7IqA_NaVf2s-12" value="Pencarian buku" style="ellipse;whiteSpace=wrap;html=1;" vertex="1" parent="1">
          <mxGeometry x="385" y="110" width="120" height="60" as="geometry" />
        </mxCell>
        <mxCell id="dTmDIWdOK7IqA_NaVf2s-13" value="Lihat detail buku" style="ellipse;whiteSpace=wrap;html=1;" vertex="1" parent="1">
          <mxGeometry x="385" y="180" width="120" height="60" as="geometry" />
        </mxCell>
        <mxCell id="dTmDIWdOK7IqA_NaVf2s-14" value="Pinjam buku" style="ellipse;whiteSpace=wrap;html=1;" vertex="1" parent="1">
          <mxGeometry x="290" y="230" width="120" height="60" as="geometry" />
        </mxCell>
        <mxCell id="dTmDIWdOK7IqA_NaVf2s-15" value="Perpanjang peminjaman" style="ellipse;whiteSpace=wrap;html=1;" vertex="1" parent="1">
          <mxGeometry x="290" y="340" width="120" height="60" as="geometry" />
        </mxCell>
        <mxCell id="dTmDIWdOK7IqA_NaVf2s-16" value="Baca buku" style="ellipse;whiteSpace=wrap;html=1;" vertex="1" parent="1">
          <mxGeometry x="300" y="500" width="120" height="60" as="geometry" />
        </mxCell>
        <mxCell id="dTmDIWdOK7IqA_NaVf2s-18" value="&amp;lt;&amp;lt;include&amp;gt;&amp;gt;" style="html=1;verticalAlign=bottom;labelBackgroundColor=none;endArrow=open;endFill=0;dashed=1;rounded=0;exitX=0.5;exitY=0;exitDx=0;exitDy=0;" edge="1" parent="1" source="dTmDIWdOK7IqA_NaVf2s-15" target="dTmDIWdOK7IqA_NaVf2s-14">
          <mxGeometry width="160" relative="1" as="geometry">
            <mxPoint x="340" y="300" as="sourcePoint" />
            <mxPoint x="500" y="300" as="targetPoint" />
          </mxGeometry>
        </mxCell>
        <mxCell id="dTmDIWdOK7IqA_NaVf2s-20" value="Manajemen buku" style="ellipse;whiteSpace=wrap;html=1;" vertex="1" parent="1">
          <mxGeometry x="470" y="270" width="120" height="60" as="geometry" />
        </mxCell>
        <mxCell id="dTmDIWdOK7IqA_NaVf2s-21" value="Pengembalian buku" style="ellipse;whiteSpace=wrap;html=1;" vertex="1" parent="1">
          <mxGeometry x="300" y="430" width="120" height="60" as="geometry" />
        </mxCell>
        <mxCell id="dTmDIWdOK7IqA_NaVf2s-22" value="Manajemen user" style="ellipse;whiteSpace=wrap;html=1;" vertex="1" parent="1">
          <mxGeometry x="470" y="350" width="120" height="60" as="geometry" />
        </mxCell>
        <mxCell id="dTmDIWdOK7IqA_NaVf2s-33" value="Aplikasi&amp;nbsp;&lt;div&gt;Perpustakaan&lt;/div&gt;&lt;div&gt;Digital&lt;/div&gt;" style="text;html=1;align=center;verticalAlign=middle;whiteSpace=wrap;rounded=0;" vertex="1" parent="1">
          <mxGeometry x="290" y="40" width="80" height="30" as="geometry" />
        </mxCell>
      </root>
    </mxGraphModel>
  </diagram>
</mxfile>
